REM DIRINDEX 1\2\6,1\2\7,1\2\8,1\2\9,1\3\10,1\3\11,1\4\12,1\4\13,1\4\14,1\5\15,1\5\16,1\5\17
REM DIRNAME folder01,folder02,folder03,folder04,folder05,folder06,folder07,folder08,folder09,folder10,folder11,folder12,folder13,folder14,folder15,folder16,folder17
TITLE ""
FILE "1900_2_sec11_1016_1032.mp3" MP3
  TRACK 01 AUDIO
    TITLE "0:"
    INDEX 01 00:00:00
  TRACK 02 AUDIO
    TITLE "13:cjc020_4160"
    INDEX 01 00:00:17
  TRACK 03 AUDIO
    TITLE "0:"
    INDEX 01 00:01:30
  TRACK 04 AUDIO
    TITLE "14:cjc020_4161"
    INDEX 01 00:01:32
  TRACK 05 AUDIO
    TITLE "0:"
    INDEX 01 00:05:05
  TRACK 06 AUDIO
    TITLE "13:cjc020_4162"
    INDEX 01 00:05:59
  TRACK 07 AUDIO
    TITLE "0:"
    INDEX 01 00:06:59
  TRACK 08 AUDIO
    TITLE "14:cjc020_4163"
    INDEX 01 00:06:63
  TRACK 09 AUDIO
    TITLE "0:"
    INDEX 01 00:10:14
  TRACK 10 AUDIO
    TITLE "13:cjc020_4164"
    INDEX 01 00:10:72
  TRACK 11 AUDIO
    TITLE "0:"
    INDEX 01 00:12:05
  TRACK 12 AUDIO
    TITLE "14:cjc020_4165"
    INDEX 01 00:12:09
  TRACK 13 AUDIO
    TITLE "0:"
    INDEX 01 00:14:31
  TRACK 14 AUDIO
    TITLE "13:cjc020_4166"
    INDEX 01 00:15:11
  TRACK 15 AUDIO
    TITLE "0:"
    INDEX 01 00:16:10
  TRACK 16 AUDIO
    TITLE "14:cjc020_4167"
    INDEX 01 00:16:12
  TRACK 17 AUDIO
    TITLE "0:"
    INDEX 01 00:20:14
  TRACK 18 AUDIO
    TITLE "13:cjc020_4168"
    INDEX 01 00:20:69
  TRACK 19 AUDIO
    TITLE "0:"
    INDEX 01 00:21:66
  TRACK 20 AUDIO
    TITLE "14:cjc020_4169"
    INDEX 01 00:21:68
  TRACK 21 AUDIO
    TITLE "0:"
    INDEX 01 00:22:70
  TRACK 22 AUDIO
    TITLE "13:cjc020_4170"
    INDEX 01 00:23:50
  TRACK 23 AUDIO
    TITLE "0:"
    INDEX 01 00:24:49
  TRACK 24 AUDIO
    TITLE "14:cjc020_4171"
    INDEX 01 00:24:53
  TRACK 25 AUDIO
    TITLE "0:"
    INDEX 01 00:27:14
  TRACK 26 AUDIO
    TITLE "13:cjc020_4172"
    INDEX 01 00:27:69
  TRACK 27 AUDIO
    TITLE "0:"
    INDEX 01 00:28:64
  TRACK 28 AUDIO
    TITLE "14:cjc020_4173"
    INDEX 01 00:28:66
  TRACK 29 AUDIO
    TITLE "0:"
    INDEX 01 00:31:10
  TRACK 30 AUDIO
    TITLE "13:cjc020_4174"
    INDEX 01 00:31:67
  TRACK 31 AUDIO
    TITLE "0:"
    INDEX 01 00:33:07
  TRACK 32 AUDIO
    TITLE "14:cjc020_4175"
    INDEX 01 00:33:15
  TRACK 33 AUDIO
    TITLE "0:"
    INDEX 01 00:34:26
  TRACK 34 AUDIO
    TITLE "13:cjc020_4176"
    INDEX 01 00:35:02
  TRACK 35 AUDIO
    TITLE "0:"
    INDEX 01 00:36:09
  TRACK 36 AUDIO
    TITLE "14:cjc020_4177"
    INDEX 01 00:36:13
  TRACK 37 AUDIO
    TITLE "0:"
    INDEX 01 00:38:53
  TRACK 38 AUDIO
    TITLE "13:cjc020_4178"
    INDEX 01 00:39:33
  TRACK 39 AUDIO
    TITLE "0:"
    INDEX 01 00:40:46
  TRACK 40 AUDIO
    TITLE "14:cjc020_4179"
    INDEX 01 00:40:52
  TRACK 41 AUDIO
    TITLE "0:"
    INDEX 01 00:43:35
  TRACK 42 AUDIO
    TITLE "13:cjc020_4180"
    INDEX 01 00:44:12
  TRACK 43 AUDIO
    TITLE "0:"
    INDEX 01 00:45:14
  TRACK 44 AUDIO
    TITLE "14:cjc020_4181"
    INDEX 01 00:45:16
  TRACK 45 AUDIO
    TITLE "0:"
    INDEX 01 00:48:22
  TRACK 46 AUDIO
    TITLE "13:cjc020_4182"
    INDEX 01 00:49:06
  TRACK 47 AUDIO
    TITLE "0:"
    INDEX 01 00:50:13
  TRACK 48 AUDIO
    TITLE "14:cjc020_4183"
    INDEX 01 00:50:15
  TRACK 49 AUDIO
    TITLE "0:"
    INDEX 01 00:52:20
  TRACK 50 AUDIO
    TITLE "13:cjc020_4184"
    INDEX 01 00:53:00
  TRACK 51 AUDIO
    TITLE "0:"
    INDEX 01 00:54:13
  TRACK 52 AUDIO
    TITLE "14:cjc020_4185"
    INDEX 01 00:54:19
  TRACK 53 AUDIO
    TITLE "0:"
    INDEX 01 00:55:38
  TRACK 54 AUDIO
    TITLE "13:cjc020_4186"
    INDEX 01 00:56:16
  TRACK 55 AUDIO
    TITLE "0:"
    INDEX 01 00:57:11
  TRACK 56 AUDIO
    TITLE "14:cjc020_4187"
    INDEX 01 00:57:13
  TRACK 57 AUDIO
    TITLE "0:"
    INDEX 01 00:59:53
  TRACK 58 AUDIO
    TITLE "13:cjc020_4188"
    INDEX 01 01:00:33
  TRACK 59 AUDIO
    TITLE "0:"
    INDEX 01 01:01:29
  TRACK 60 AUDIO
    TITLE "14:cjc020_4189"
    INDEX 01 01:01:36
  TRACK 61 AUDIO
    TITLE "0:"
    INDEX 01 01:02:59
  TRACK 62 AUDIO
    TITLE "13:cjc020_4190"
    INDEX 01 01:03:39
  TRACK 63 AUDIO
    TITLE "0:"
    INDEX 01 01:04:41
  TRACK 64 AUDIO
    TITLE "14:cjc020_4191"
    INDEX 01 01:04:45
  TRACK 65 AUDIO
    TITLE "0:"
    INDEX 01 01:08:01
  TRACK 66 AUDIO
    TITLE "13:cjc020_4192"
    INDEX 01 01:08:50
  TRACK 67 AUDIO
    TITLE "0:"
    INDEX 01 01:09:50
  TRACK 68 AUDIO
    TITLE "14:cjc020_4193"
    INDEX 01 01:09:56
  TRACK 69 AUDIO
    TITLE "0:"
    INDEX 01 01:13:20
